# File created by Blade
# Date/Time:  Thu Sep 25 18:58:07 2014
# Frame Rate: 120.000 fps
#------------------------------------------------------
:FULLY-SPECIFIED
:DEGREES
1952
root 1.519127 32.791523 0.314581 7.966921 2.788910 -0.136870
Spine -9.874365 5.693638 -2.049809
Head -7.545108 -10.847586 15.866056
LeftShoulder 13.723580 2.136620 12.482046
LeftArm 89.606217 52.319791 -18.892110
LeftForeArm 12.978547 -0.000000 19.666923
LeftHand -20.384911 -0.000000 -18.801487
LeftHandThumb1 -26.253704 0.000000 33.147579
RightShoulder -0.602847 25.161322 -9.977426
RightArm 42.147192 -56.253477 67.159168
RightForeArm -20.525545 0.000000 15.155950
RightHand -0.937035 -0.000000 25.846567
RightHandThumb1 -24.326973 -0.000000 -32.862282
LeftUpLeg -4.075080 10.523567 3.442993
LeftLeg -3.548009 -0.000000 0.000000
LeftFoot -4.191035 -5.189753 -17.709051
LeftToeBase 8.781025 -0.000000 -0.000000
RightUpLeg -3.688118 -12.455709 -5.818418
RightLeg -0.727342 -0.000000 0.000000
RightFoot -3.852011 -1.396815 3.355078
RightToeBase -2.755953 -0.000000 0.000000
1953
root 1.521972 32.790904 0.319493 7.930575 2.854403 -0.144103
Spine -9.822409 5.794018 -2.023551
Head -7.613016 -10.995615 15.891536
LeftShoulder 13.596899 2.305303 12.438317
LeftArm 88.879931 52.344696 -19.117339
LeftForeArm 12.836091 0.000000 19.900571
LeftHand -20.198475 -0.000000 -18.908349
LeftHandThumb1 -26.253704 0.000000 33.147579
RightShoulder -0.931447 25.068718 -10.208568
RightArm 42.035047 -56.244910 66.951730
RightForeArm -20.729693 -0.000000 15.222436
RightHand -0.908092 0.000000 25.840175
RightHandThumb1 -24.326973 -0.000000 -32.862282
LeftUpLeg -4.042539 10.459473 3.466024
LeftLeg -3.550994 -0.000000 0.000000
LeftFoot -4.198341 -5.217816 -17.644280
LeftToeBase 8.730902 -0.000000 -0.000000
RightUpLeg -3.631966 -12.492553 -5.822051
RightLeg -0.718668 -0.000000 0.000000
RightFoot -3.870406 -1.407435 3.390730
RightToeBase -2.750577 -0.000000 0.000000
1954
root 1.523472 32.790510 0.323926 7.915958 2.879075 -0.136103
Spine -9.804333 5.930003 -2.043988
Head -7.660491 -11.160697 15.942201
LeftShoulder 13.433914 2.522040 12.396286
LeftArm 88.130133 52.348168 -19.331900
LeftForeArm 12.718181 0.000000 20.161782
LeftHand -20.260892 -0.000000 -18.717510
LeftHandThumb1 -26.253704 0.000000 33.147579
RightShoulder -1.266051 24.967382 -10.415837
RightArm 41.768944 -56.158148 66.932174
RightForeArm -20.936137 -0.000000 15.224936
RightHand -0.769492 0.000000 25.901121
RightHandThumb1 -24.326973 -0.000000 -32.862282
LeftUpLeg -4.030453 10.431084 3.456331
LeftLeg -3.523695 -0.000000 0.000000
LeftFoot -4.233545 -5.192674 -17.688966
LeftToeBase 8.788473 -0.000000 -0.000000
RightUpLeg -3.606894 -12.497740 -5.836577
RightLeg -0.710938 -0.000000 0.000000
RightFoot -3.880630 -1.421451 3.395493
RightToeBase -2.764428 -0.000000 0.000000
1955
root 1.523594 32.790303 0.329813 7.889265 2.906605 -0.141705
Spine -9.769991 6.043813 -2.040700
Head -7.721330 -11.297471 15.982495
LeftShoulder 13.212589 2.836873 12.358669
LeftArm 87.478139 52.259767 -19.419387
LeftForeArm 12.480067 -0.000000 20.418731
LeftHand -20.134592 -0.000000 -19.107740
LeftHandThumb1 -26.253704 0.000000 33.147579
RightShoulder -1.609141 24.860057 -10.643538
RightArm 41.467974 -56.050051 66.969449
RightForeArm -21.162038 -0.000000 15.217652
RightHand -0.861725 0.000000 26.006678
RightHandThumb1 -24.326973 -0.000000 -32.862282
LeftUpLeg -3.999111 10.426051 3.476273
LeftLeg -3.531551 -0.000000 0.000000
LeftFoot -4.216741 -5.241726 -17.637418
LeftToeBase 8.732938 -0.000000 -0.000000
RightUpLeg -3.568435 -12.499763 -5.836565
RightLeg -0.699944 -0.000000 0.000000
RightFoot -3.903556 -1.443067 3.401222
RightToeBase -2.745034 -0.000000 0.000000
1956
root 1.523005 32.789588 0.335446 7.853244 2.896189 -0.134911
Spine -9.720275 6.132438 -2.052169
Head -7.761259 -11.370815 16.010952
LeftShoulder 12.970821 3.100937 12.306842
LeftArm 86.581561 52.234731 -19.731593
LeftForeArm 12.421057 -0.000000 20.701041
LeftHand -20.510837 -0.000000 -19.090885
LeftHandThumb1 -26.253704 0.000000 33.147579
RightShoulder -1.857277 24.799231 -10.834723
RightArm 40.907050 -55.818817 67.275724
RightForeArm -21.448643 -0.000000 15.162733
RightHand -0.758389 -0.000000 26.023851
RightHandThumb1 -24.326973 -0.000000 -32.862282
LeftUpLeg -3.950606 10.438605 3.472331
LeftLeg -3.520052 -0.000000 0.000000
LeftFoot -4.245853 -5.219865 -17.684955
LeftToeBase 8.730341 -0.000000 -0.000000
RightUpLeg -3.530236 -12.462458 -5.853118
RightLeg -0.682236 -0.000000 0.000000
RightFoot -3.930331 -1.476544 3.390444
RightToeBase -2.716830 -0.000000 0.000000
1957
root 1.524743 32.789032 0.343556 7.824934 2.908062 -0.124679
Spine -9.692657 6.184280 -2.049297
Head -7.788728 -11.469570 16.005081
LeftShoulder 12.703177 3.376763 12.233034
LeftArm 85.596592 52.214139 -20.153797
LeftForeArm 12.133950 -0.000000 20.903850
LeftHand -20.932388 -0.000000 -19.148205
LeftHandThumb1 -26.253704 0.000000 33.147579
RightShoulder -2.125323 24.684415 -11.042231
RightArm 40.447542 -55.610579 67.500637
RightForeArm -21.685392 0.000000 15.142464
RightHand -0.953912 -0.000000 26.213751
RightHandThumb1 -24.326973 -0.000000 -32.862282
LeftUpLeg -3.907706 10.422310 3.469104
LeftLeg -3.519965 -0.000000 0.000000
LeftFoot -4.259968 -5.224052 -17.704994
LeftToeBase 8.752142 -0.000000 -0.000000
RightUpLeg -3.484138 -12.471439 -5.870446
RightLeg -0.682140 -0.000000 0.000000
RightFoot -3.938855 -1.495305 3.378823
RightToeBase -2.740471 -0.000000 0.000000
1958
root 1.523491 32.789691 0.348750 7.818232 2.921999 -0.139261
Spine -9.690622 6.244797 -2.029945
Head -7.798844 -11.565783 16.021160
LeftShoulder 12.438028 3.670977 12.185099
LeftArm 84.269546 52.183240 -20.984335
LeftForeArm 12.459323 -0.000000 20.984832
LeftHand -20.337197 0.000000 -19.140228
LeftHandThumb1 -26.253704 0.000000 33.147579
RightShoulder -2.384686 24.582045 -11.230271
RightArm 40.003839 -55.446428 67.657647
RightForeArm -21.823664 -0.000000 15.133631
RightHand -0.951484 -0.000000 26.292168
RightHandThumb1 -24.326973 -0.000000 -32.862282
LeftUpLeg -3.898332 10.431483 3.495353
LeftLeg -3.519123 -0.000000 0.000000
LeftFoot -4.241364 -5.288286 -17.643176
LeftToeBase 8.758530 -0.000000 -0.000000
RightUpLeg -3.468272 -12.465304 -5.861573
RightLeg -0.665779 -0.000000 0.000000
RightFoot -4.003472 -1.467755 3.512256
RightToeBase -2.526559 -0.000000 0.000000
1959
root 1.526725 32.789877 0.357036 7.795807 2.962165 -0.143942
Spine -9.679215 6.302757 -2.007497
Head -7.811573 -11.694704 16.028101
LeftShoulder 12.181775 3.972602 12.092556
LeftArm 83.286845 52.141623 -21.408438
LeftForeArm 12.182549 -0.000000 21.096269
LeftHand -20.420645 -0.000000 -19.021152
LeftHandThumb1 -26.253704 0.000000 33.147579
RightShoulder -2.689066 24.486045 -11.453119
RightArm 39.510494 -55.288453 67.864015
RightForeArm -22.026815 -0.000000 15.082960
RightHand -1.043709 -0.000000 26.330525
RightHandThumb1 -24.326973 -0.000000 -32.862282
LeftUpLeg -3.864563 10.370556 3.505782
LeftLeg -3.526240 -0.000000 0.000000
LeftFoot -4.258013 -5.261055 -17.617905
LeftToeBase 8.706823 -0.000000 -0.000000
RightUpLeg -3.419652 -12.513635 -5.864465
RightLeg -0.681133 -0.000000 0.000000
RightFoot -3.943986 -1.466961 3.435045
RightToeBase -2.760786 -0.000000 0.000000
1960
root 1.524947 32.790498 0.368945 7.747379 2.935648 -0.122462
Spine -9.632922 6.388197 -2.077029
Head -7.847851 -11.797936 16.161480
LeftShoulder 11.905597 4.239956 12.069733
LeftArm 82.265066 52.121049 -21.839275
LeftForeArm 11.999982 -0.000000 21.209645
LeftHand -20.462857 -0.000000 -18.848871
LeftHandThumb1 -26.253704 0.000000 33.147579
RightShoulder -2.992712 24.374349 -11.585966
RightArm 38.925745 -55.058868 68.133134
RightForeArm -22.276479 -0.000000 15.115429
RightHand -1.112665 0.000000 26.354862
RightHandThumb1 -24.326973 -0.000000 -32.862282
LeftUpLeg -3.780873 10.416525 3.498883
LeftLeg -3.542078 -0.000000 0.000000
LeftFoot -4.248038 -5.282517 -17.634252
LeftToeBase 8.736805 -0.000000 -0.000000
RightUpLeg -3.350697 -12.484042 -5.897817
RightLeg -0.685650 -0.000000 0.000000
RightFoot -3.955462 -1.476910 3.400781
RightToeBase -2.742119 -0.000000 0.000000
1961
root 1.525129 32.791112 0.376957 7.736216 2.934395 -0.120545
Spine -9.632699 6.403093 -2.090113
Head -7.861819 -11.882112 16.230441
LeftShoulder 11.586456 4.486888 12.028525
LeftArm 81.239010 52.107595 -22.281274
LeftForeArm 11.829522 -0.000000 21.279565
LeftHand -20.450879 -0.000000 -19.027919
LeftHandThumb1 -26.253704 0.000000 33.147579
RightShoulder -3.216882 24.284440 -11.754947
RightArm 38.224601 -54.804736 68.503450
RightForeArm -22.577060 0.000000 15.169955
RightHand -1.173487 -0.000000 26.396590
RightHandThumb1 -24.326973 -0.000000 -32.862282
LeftUpLeg -3.759955 10.423088 3.498741
LeftLeg -3.533152 -0.000000 0.000000
LeftFoot -4.252553 -5.286128 -17.618866
LeftToeBase 8.687011 -0.000000 -0.000000
RightUpLeg -3.322579 -12.463182 -5.908389
RightLeg -0.678074 -0.000000 0.000000
RightFoot -3.964459 -1.540500 3.366306
RightToeBase -2.747684 -0.000000 0.000000
1962
root 1.524757 32.792015 0.387418 7.722764 2.934429 -0.119458
Spine -9.641948 6.400009 -2.106838
Head -7.843367 -11.962280 16.304462
LeftShoulder 11.196741 4.740306 11.966020
LeftArm 80.213098 52.117496 -22.779051
LeftForeArm 11.589108 0.000000 21.231171
LeftHand -20.301129 0.000000 -19.093321
LeftHandThumb1 -26.253704 0.000000 33.147579
RightShoulder -3.406584 24.203546 -11.849918
RightArm 37.385627 -54.466721 69.005656
RightForeArm -22.934198 -0.000000 15.195778
RightHand -1.158382 -0.000000 26.520203
RightHandThumb1 -24.326973 -0.000000 -32.862282
LeftUpLeg -3.725204 10.414605 3.506656
LeftLeg -3.533370 -0.000000 0.000000
LeftFoot -4.258574 -5.286310 -17.648087
LeftToeBase 8.741499 -0.000000 -0.000000
RightUpLeg -3.284580 -12.454381 -5.915351
RightLeg -0.688543 -0.000000 0.000000
RightFoot -3.972673 -1.546057 3.370082
RightToeBase -2.767675 -0.000000 0.000000
1963
root 1.522568 32.793460 0.397403 7.717169 2.930952 -0.135182
Spine -9.662058 6.392701 -2.108025
Head -7.818731 -12.041752 16.373991
LeftShoulder 10.826126 4.998312 11.913795
LeftArm 79.054723 52.116869 -23.437573
LeftForeArm 11.528647 -0.000000 21.123700
LeftHand -20.490407 0.000000 -19.105022
LeftHandThumb1 -26.253704 0.000000 33.147579
RightShoulder -3.589421 24.131099 -11.941508
RightArm 36.566350 -54.160502 69.459129
RightForeArm -23.194501 0.000000 15.191104
RightHand -1.080082 -0.000000 26.486466
RightHandThumb1 -24.326973 -0.000000 -32.862282
LeftUpLeg -3.701842 10.413502 3.533468
LeftLeg -3.533099 -0.000000 0.000000
LeftFoot -4.254682 -5.301802 -17.661314
LeftToeBase 8.696666 -0.000000 -0.000000
RightUpLeg -3.248998 -12.440094 -5.896673
RightLeg -0.729556 -0.000000 0.000000
RightFoot -3.942537 -1.518773 3.422772
RightToeBase -2.725106 -0.000000 0.000000
1964
root 1.522322 32.794257 0.409693 7.695133 2.923031 -0.134318
Spine -9.670869 6.373663 -2.126803
Head -7.772041 -12.128724 16.447949
LeftShoulder 10.475421 5.266217 11.909576
LeftArm 77.814471 52.085783 -24.241422
LeftForeArm 11.098196 -0.000000 20.897472
LeftHand -21.158725 0.000000 -18.265846
LeftHandThumb1 -26.253704 0.000000 33.147579
RightShoulder -3.777373 24.017374 -12.019837
RightArm 35.709765 -53.778236 69.960251
RightForeArm -23.405489 -0.000000 15.221629
RightHand -1.229372 -0.000000 26.544001
RightHandThumb1 -24.326973 -0.000000 -32.862282
LeftUpLeg -3.645837 10.358867 3.546734
LeftLeg -3.551990 -0.000000 0.000000
LeftFoot -4.263018 -5.231673 -17.675796
LeftToeBase 8.650259 -0.000000 -0.000000
RightUpLeg -3.203543 -12.438093 -5.905350
RightLeg -0.736206 -0.000000 0.000000
RightFoot -3.935965 -1.503717 3.438526
RightToeBase -2.782636 -0.000000 0.000000
